# xmcd
#
# Track frame offsets:
#	150
#	17938
#	36417
#	59309
#	79035
#	98725
#	116526
#	137482
#	159556
#	178343
#	196983
#	214397
#	233141
#	248266
#	267616
#	281013
#	301474
#
# Disc length: 4329 seconds
#
# Revision: 4
# Processed by: cddbd v1.5.2PL0 Copyright (c) Steve Scherf et al.
# Submitted via: audiograbber 1.83.01
#
DISCID=f310e711
DTITLE=Waka Flocka Flame - Flockaveli
DYEAR=2010
DGENRE=Rap
TTITLE0=Waka Flocka Flame - Bustin' At Em'
TTITLE1=Waka Flocka Flame - Hard In Da Paint
TTITLE2=Waka Flocka Flame, French Montana, YG Hootie, Joe Moses, Suge Gotti, Ba
TTITLE2=by Bomb - TTG (Trained To Go
TTITLE3=Waka Flocka Flame, YG Hootie, Slim Dunkin - Bang
TTITLE4=Waka Flocka Flame, Roscoe Dash, Wale - No Hands
TTITLE5=Waka Flocka Flame, Gudda Gudda - Bricksquad
TTITLE6=Waka Flocka Flame, Pastor Troy, Slim Dunkin - Fuck The Club Up
TTITLE7=Waka Flocka Flame, YG Hootie, Popa Smurf, Ice Burgundy - Homies
TTITLE8=Waka Flocka Flame, Kebo Gotti - Grove St. Party
TTITLE9=Waka Flocka Flame, Lil' Cap - O Let's Do It
TTITLE10=Waka Flocka Flame, YG Hootie, Popa Smurf, Slim Dunkin - Karma
TTITLE11=Waka Flocka Flame, RA Diggs, Uncle Murda - Live By The Gun
TTITLE12=Waka Flocka Flame - For My Dawgs
TTITLE13=Waka Flocka Flame, YG Hootie, Bo Deal, Joe Moses - G Check
TTITLE14=Waka Flocka Flame, Cartier Kitten - Snake In The Grass
TTITLE15=Waka Flocka Flame, Bo Deal, Mouse, Kebo Gotti - Smoke, Drank
TTITLE16=Waka Flocka Flame - Fuck This Industry
EXTD=www.RapMusicGuide.com\n
EXTT0=
EXTT1=
EXTT2=
EXTT3=
EXTT4=
EXTT5=
EXTT6=
EXTT7=
EXTT8=
EXTT9=
EXTT10=
EXTT11=
EXTT12=
EXTT13=
EXTT14=
EXTT15=
EXTT16=
PLAYORDER=
